<svg xmlns="http://www.w3.org/2000/svg" version="1.1" xmlns:xlink="http://www.w3.org/1999/xlink" xmlns:svgjs="http://svgjs.com/svgjs" width="1440" height="560" preserveAspectRatio="none" viewBox="0 0 1440 560"><g mask="url(&quot;#SvgjsMask2484&quot;)" fill="none"><rect width="1440" height="560" x="0" y="0" fill="url(#SvgjsLinearGradient2485)"></rect><path d="M53.16 -61.91L112.05 -27.91L112.05 40.09L53.16 74.09L-5.73 40.09L-5.73 -27.91zM170.94 -61.91L229.83 -27.91L229.83 40.09L170.94 74.09L112.05 40.09L112.05 -27.91zM229.83 244.09L288.73 278.09L288.73 346.09L229.83 380.09L170.94 346.09L170.94 278.09zM170.94 346.09L229.83 380.09L229.83 448.09L170.94 482.09L112.05 448.09L112.05 380.09zM229.83 448.09L288.73 482.09L288.73 550.09L229.83 584.09L170.94 550.09L170.94 482.09zM288.73 346.09L347.62 380.09L347.62 448.09L288.73 482.09L229.83 448.09L229.83 380.09zM347.62 448.09L406.51 482.09L406.51 550.09L347.62 584.09L288.73 550.09L288.73 482.09zM406.51 346.09L465.4 380.09L465.4 448.09L406.51 482.09L347.62 448.09L347.62 380.09zM583.18 448.09L642.07 482.09L642.07 550.09L583.18 584.09L524.29 550.09L524.29 482.09zM759.86 -61.91L818.75 -27.91L818.75 40.09L759.86 74.09L700.97 40.09L700.97 -27.91zM1054.31 40.09L1113.21 74.09L1113.21 142.09L1054.31 176.09L995.42 142.09L995.42 74.09zM995.42 142.09L1054.31 176.09L1054.31 244.09L995.42 278.09L936.53 244.09L936.53 176.09zM995.42 346.09L1054.31 380.09L1054.31 448.09L995.42 482.09L936.53 448.09L936.53 380.09zM1113.21 -61.91L1172.1 -27.91L1172.1 40.09L1113.21 74.09L1054.31 40.09L1054.31 -27.91zM1172.1 40.09L1230.99 74.09L1230.99 142.09L1172.1 176.09L1113.21 142.09L1113.21 74.09zM1172.1 244.09L1230.99 278.09L1230.99 346.09L1172.1 380.09L1113.21 346.09L1113.21 278.09zM1230.99 346.09L1289.88 380.09L1289.88 448.09L1230.99 482.09L1172.1 448.09L1172.1 380.09zM1289.88 448.09L1348.77 482.09L1348.77 550.09L1289.88 584.09L1230.99 550.09L1230.99 482.09zM1348.77 -61.91L1407.66 -27.91L1407.66 40.09L1348.77 74.09L1289.88 40.09L1289.88 -27.91zM1407.66 40.09L1466.55 74.09L1466.55 142.09L1407.66 176.09L1348.77 142.09L1348.77 74.09zM1407.66 244.09L1466.55 278.09L1466.55 346.09L1407.66 380.09L1348.77 346.09L1348.77 278.09zM1348.77 346.09L1407.66 380.09L1407.66 448.09L1348.77 482.09L1289.88 448.09L1289.88 380.09zM1407.66 448.09L1466.55 482.09L1466.55 550.09L1407.66 584.09L1348.77 550.09L1348.77 482.09zM1466.55 -61.91L1525.44 -27.91L1525.44 40.09L1466.55 74.09L1407.66 40.09L1407.66 -27.91zM1466.55 142.09L1525.44 176.09L1525.44 244.09L1466.55 278.09L1407.66 244.09L1407.66 176.09z" stroke="url(#SvgjsLinearGradient2486)" stroke-width="2"></path><path d="M46.36 -61.91 a6.8 6.8 0 1 0 13.6 0 a6.8 6.8 0 1 0 -13.6 0zM105.25 -27.91 a6.8 6.8 0 1 0 13.6 0 a6.8 6.8 0 1 0 -13.6 0zM105.25 40.09 a6.8 6.8 0 1 0 13.6 0 a6.8 6.8 0 1 0 -13.6 0zM46.36 74.09 a6.8 6.8 0 1 0 13.6 0 a6.8 6.8 0 1 0 -13.6 0zM-12.53 40.09 a6.8 6.8 0 1 0 13.6 0 a6.8 6.8 0 1 0 -13.6 0zM-12.53 -27.91 a6.8 6.8 0 1 0 13.6 0 a6.8 6.8 0 1 0 -13.6 0zM164.14 -61.91 a6.8 6.8 0 1 0 13.6 0 a6.8 6.8 0 1 0 -13.6 0zM223.03 -27.91 a6.8 6.8 0 1 0 13.6 0 a6.8 6.8 0 1 0 -13.6 0zM223.03 40.09 a6.8 6.8 0 1 0 13.6 0 a6.8 6.8 0 1 0 -13.6 0zM164.14 74.09 a6.8 6.8 0 1 0 13.6 0 a6.8 6.8 0 1 0 -13.6 0zM223.03 244.09 a6.8 6.8 0 1 0 13.6 0 a6.8 6.8 0 1 0 -13.6 0zM281.93 278.09 a6.8 6.8 0 1 0 13.6 0 a6.8 6.8 0 1 0 -13.6 0zM281.93 346.09 a6.8 6.8 0 1 0 13.6 0 a6.8 6.8 0 1 0 -13.6 0zM223.03 380.09 a6.8 6.8 0 1 0 13.6 0 a6.8 6.8 0 1 0 -13.6 0zM164.14 346.09 a6.8 6.8 0 1 0 13.6 0 a6.8 6.8 0 1 0 -13.6 0zM164.14 278.09 a6.8 6.8 0 1 0 13.6 0 a6.8 6.8 0 1 0 -13.6 0zM223.03 448.09 a6.8 6.8 0 1 0 13.6 0 a6.8 6.8 0 1 0 -13.6 0zM164.14 482.09 a6.8 6.8 0 1 0 13.6 0 a6.8 6.8 0 1 0 -13.6 0zM105.25 448.09 a6.8 6.8 0 1 0 13.6 0 a6.8 6.8 0 1 0 -13.6 0zM105.25 380.09 a6.8 6.8 0 1 0 13.6 0 a6.8 6.8 0 1 0 -13.6 0zM281.93 482.09 a6.8 6.8 0 1 0 13.6 0 a6.8 6.8 0 1 0 -13.6 0zM281.93 550.09 a6.8 6.8 0 1 0 13.6 0 a6.8 6.8 0 1 0 -13.6 0zM223.03 584.09 a6.8 6.8 0 1 0 13.6 0 a6.8 6.8 0 1 0 -13.6 0zM164.14 550.09 a6.8 6.8 0 1 0 13.6 0 a6.8 6.8 0 1 0 -13.6 0zM340.82 380.09 a6.8 6.8 0 1 0 13.6 0 a6.8 6.8 0 1 0 -13.6 0zM340.82 448.09 a6.8 6.8 0 1 0 13.6 0 a6.8 6.8 0 1 0 -13.6 0zM399.71 482.09 a6.8 6.8 0 1 0 13.6 0 a6.8 6.8 0 1 0 -13.6 0zM399.71 550.09 a6.8 6.8 0 1 0 13.6 0 a6.8 6.8 0 1 0 -13.6 0zM340.82 584.09 a6.8 6.8 0 1 0 13.6 0 a6.8 6.8 0 1 0 -13.6 0zM399.71 346.09 a6.8 6.8 0 1 0 13.6 0 a6.8 6.8 0 1 0 -13.6 0zM458.6 380.09 a6.8 6.8 0 1 0 13.6 0 a6.8 6.8 0 1 0 -13.6 0zM458.6 448.09 a6.8 6.8 0 1 0 13.6 0 a6.8 6.8 0 1 0 -13.6 0zM576.38 448.09 a6.8 6.8 0 1 0 13.6 0 a6.8 6.8 0 1 0 -13.6 0zM635.27 482.09 a6.8 6.8 0 1 0 13.6 0 a6.8 6.8 0 1 0 -13.6 0zM635.27 550.09 a6.8 6.8 0 1 0 13.6 0 a6.8 6.8 0 1 0 -13.6 0zM576.38 584.09 a6.8 6.8 0 1 0 13.6 0 a6.8 6.8 0 1 0 -13.6 0zM517.49 550.09 a6.8 6.8 0 1 0 13.6 0 a6.8 6.8 0 1 0 -13.6 0zM517.49 482.09 a6.8 6.8 0 1 0 13.6 0 a6.8 6.8 0 1 0 -13.6 0zM753.06 -61.91 a6.8 6.8 0 1 0 13.6 0 a6.8 6.8 0 1 0 -13.6 0zM811.95 -27.91 a6.8 6.8 0 1 0 13.6 0 a6.8 6.8 0 1 0 -13.6 0zM811.95 40.09 a6.8 6.8 0 1 0 13.6 0 a6.8 6.8 0 1 0 -13.6 0zM753.06 74.09 a6.8 6.8 0 1 0 13.6 0 a6.8 6.8 0 1 0 -13.6 0zM694.17 40.09 a6.8 6.8 0 1 0 13.6 0 a6.8 6.8 0 1 0 -13.6 0zM694.17 -27.91 a6.8 6.8 0 1 0 13.6 0 a6.8 6.8 0 1 0 -13.6 0zM1047.51 40.09 a6.8 6.8 0 1 0 13.6 0 a6.8 6.8 0 1 0 -13.6 0zM1106.41 74.09 a6.8 6.8 0 1 0 13.6 0 a6.8 6.8 0 1 0 -13.6 0zM1106.41 142.09 a6.8 6.8 0 1 0 13.6 0 a6.8 6.8 0 1 0 -13.6 0zM1047.51 176.09 a6.8 6.8 0 1 0 13.6 0 a6.8 6.8 0 1 0 -13.6 0zM988.62 142.09 a6.8 6.8 0 1 0 13.6 0 a6.8 6.8 0 1 0 -13.6 0zM988.62 74.09 a6.8 6.8 0 1 0 13.6 0 a6.8 6.8 0 1 0 -13.6 0zM1047.51 244.09 a6.8 6.8 0 1 0 13.6 0 a6.8 6.8 0 1 0 -13.6 0zM988.62 278.09 a6.8 6.8 0 1 0 13.6 0 a6.8 6.8 0 1 0 -13.6 0zM929.73 244.09 a6.8 6.8 0 1 0 13.6 0 a6.8 6.8 0 1 0 -13.6 0zM929.73 176.09 a6.8 6.8 0 1 0 13.6 0 a6.8 6.8 0 1 0 -13.6 0zM988.62 346.09 a6.8 6.8 0 1 0 13.6 0 a6.8 6.8 0 1 0 -13.6 0zM1047.51 380.09 a6.8 6.8 0 1 0 13.6 0 a6.8 6.8 0 1 0 -13.6 0zM1047.51 448.09 a6.8 6.8 0 1 0 13.6 0 a6.8 6.8 0 1 0 -13.6 0zM988.62 482.09 a6.8 6.8 0 1 0 13.6 0 a6.8 6.8 0 1 0 -13.6 0zM929.73 448.09 a6.8 6.8 0 1 0 13.6 0 a6.8 6.8 0 1 0 -13.6 0zM929.73 380.09 a6.8 6.8 0 1 0 13.6 0 a6.8 6.8 0 1 0 -13.6 0zM1106.41 -61.91 a6.8 6.8 0 1 0 13.6 0 a6.8 6.8 0 1 0 -13.6 0zM1165.3 -27.91 a6.8 6.8 0 1 0 13.6 0 a6.8 6.8 0 1 0 -13.6 0zM1165.3 40.09 a6.8 6.8 0 1 0 13.6 0 a6.8 6.8 0 1 0 -13.6 0zM1047.51 -27.91 a6.8 6.8 0 1 0 13.6 0 a6.8 6.8 0 1 0 -13.6 0zM1224.19 74.09 a6.8 6.8 0 1 0 13.6 0 a6.8 6.8 0 1 0 -13.6 0zM1224.19 142.09 a6.8 6.8 0 1 0 13.6 0 a6.8 6.8 0 1 0 -13.6 0zM1165.3 176.09 a6.8 6.8 0 1 0 13.6 0 a6.8 6.8 0 1 0 -13.6 0zM1165.3 244.09 a6.8 6.8 0 1 0 13.6 0 a6.8 6.8 0 1 0 -13.6 0zM1224.19 278.09 a6.8 6.8 0 1 0 13.6 0 a6.8 6.8 0 1 0 -13.6 0zM1224.19 346.09 a6.8 6.8 0 1 0 13.6 0 a6.8 6.8 0 1 0 -13.6 0zM1165.3 380.09 a6.8 6.8 0 1 0 13.6 0 a6.8 6.8 0 1 0 -13.6 0zM1106.41 346.09 a6.8 6.8 0 1 0 13.6 0 a6.8 6.8 0 1 0 -13.6 0zM1106.41 278.09 a6.8 6.8 0 1 0 13.6 0 a6.8 6.8 0 1 0 -13.6 0zM1283.08 380.09 a6.8 6.8 0 1 0 13.6 0 a6.8 6.8 0 1 0 -13.6 0zM1283.08 448.09 a6.8 6.8 0 1 0 13.6 0 a6.8 6.8 0 1 0 -13.6 0zM1224.19 482.09 a6.8 6.8 0 1 0 13.6 0 a6.8 6.8 0 1 0 -13.6 0zM1165.3 448.09 a6.8 6.8 0 1 0 13.6 0 a6.8 6.8 0 1 0 -13.6 0zM1341.97 482.09 a6.8 6.8 0 1 0 13.6 0 a6.8 6.8 0 1 0 -13.6 0zM1341.97 550.09 a6.8 6.8 0 1 0 13.6 0 a6.8 6.8 0 1 0 -13.6 0zM1283.08 584.09 a6.8 6.8 0 1 0 13.6 0 a6.8 6.8 0 1 0 -13.6 0zM1224.19 550.09 a6.8 6.8 0 1 0 13.6 0 a6.8 6.8 0 1 0 -13.6 0zM1341.97 -61.91 a6.8 6.8 0 1 0 13.6 0 a6.8 6.8 0 1 0 -13.6 0zM1400.86 -27.91 a6.8 6.8 0 1 0 13.6 0 a6.8 6.8 0 1 0 -13.6 0zM1400.86 40.09 a6.8 6.8 0 1 0 13.6 0 a6.8 6.8 0 1 0 -13.6 0zM1341.97 74.09 a6.8 6.8 0 1 0 13.6 0 a6.8 6.8 0 1 0 -13.6 0zM1283.08 40.09 a6.8 6.8 0 1 0 13.6 0 a6.8 6.8 0 1 0 -13.6 0zM1283.08 -27.91 a6.8 6.8 0 1 0 13.6 0 a6.8 6.8 0 1 0 -13.6 0zM1459.75 74.09 a6.8 6.8 0 1 0 13.6 0 a6.8 6.8 0 1 0 -13.6 0zM1459.75 142.09 a6.8 6.8 0 1 0 13.6 0 a6.8 6.8 0 1 0 -13.6 0zM1400.86 176.09 a6.8 6.8 0 1 0 13.6 0 a6.8 6.8 0 1 0 -13.6 0zM1341.97 142.09 a6.8 6.8 0 1 0 13.6 0 a6.8 6.8 0 1 0 -13.6 0zM1400.86 244.09 a6.8 6.8 0 1 0 13.6 0 a6.8 6.8 0 1 0 -13.6 0zM1459.75 278.09 a6.8 6.8 0 1 0 13.6 0 a6.8 6.8 0 1 0 -13.6 0zM1459.75 346.09 a6.8 6.8 0 1 0 13.6 0 a6.8 6.8 0 1 0 -13.6 0zM1400.86 380.09 a6.8 6.8 0 1 0 13.6 0 a6.8 6.8 0 1 0 -13.6 0zM1341.97 346.09 a6.8 6.8 0 1 0 13.6 0 a6.8 6.8 0 1 0 -13.6 0zM1341.97 278.09 a6.8 6.8 0 1 0 13.6 0 a6.8 6.8 0 1 0 -13.6 0zM1400.86 448.09 a6.8 6.8 0 1 0 13.6 0 a6.8 6.8 0 1 0 -13.6 0zM1459.75 482.09 a6.8 6.8 0 1 0 13.6 0 a6.8 6.8 0 1 0 -13.6 0zM1459.75 550.09 a6.8 6.8 0 1 0 13.6 0 a6.8 6.8 0 1 0 -13.6 0zM1400.86 584.09 a6.8 6.8 0 1 0 13.6 0 a6.8 6.8 0 1 0 -13.6 0zM1459.75 -61.91 a6.8 6.8 0 1 0 13.6 0 a6.8 6.8 0 1 0 -13.6 0zM1518.64 -27.91 a6.8 6.8 0 1 0 13.6 0 a6.8 6.8 0 1 0 -13.6 0zM1518.64 40.09 a6.8 6.8 0 1 0 13.6 0 a6.8 6.8 0 1 0 -13.6 0zM1518.64 176.09 a6.8 6.8 0 1 0 13.6 0 a6.8 6.8 0 1 0 -13.6 0zM1518.64 244.09 a6.8 6.8 0 1 0 13.6 0 a6.8 6.8 0 1 0 -13.6 0z" fill="url(#SvgjsLinearGradient2486)"></path><path d="M521.84 126.8L662.14 207.8L662.14 369.8L521.84 450.8L381.54 369.8L381.54 207.8zM381.54 369.8L521.84 450.8L521.84 612.8L381.54 693.8L241.24 612.8L241.24 450.8zM662.14 -116.2L802.44 -35.2L802.44 126.8L662.14 207.8L521.84 126.8L521.84 -35.2zM802.44 126.8L942.74 207.8L942.74 369.8L802.44 450.8L662.14 369.8L662.14 207.8zM662.14 369.8L802.44 450.8L802.44 612.8L662.14 693.8L521.84 612.8L521.84 450.8zM1223.34 -116.2L1363.64 -35.2L1363.64 126.8L1223.34 207.8L1083.04 126.8L1083.04 -35.2zM1223.34 369.8L1363.64 450.8L1363.64 612.8L1223.34 693.8L1083.04 612.8L1083.04 450.8zM1503.94 -116.2L1644.24 -35.2L1644.24 126.8L1503.94 207.8L1363.64 126.8L1363.64 -35.2zM1644.24 126.8L1784.54 207.8L1784.54 369.8L1644.24 450.8L1503.94 369.8L1503.94 207.8z" stroke="rgba(25, 99, 172, 1)" stroke-width="2"></path><path d="M505.64 126.8 a16.2 16.2 0 1 0 32.4 0 a16.2 16.2 0 1 0 -32.4 0zM645.94 207.8 a16.2 16.2 0 1 0 32.4 0 a16.2 16.2 0 1 0 -32.4 0zM645.94 369.8 a16.2 16.2 0 1 0 32.4 0 a16.2 16.2 0 1 0 -32.4 0zM505.64 450.8 a16.2 16.2 0 1 0 32.4 0 a16.2 16.2 0 1 0 -32.4 0zM365.34 369.8 a16.2 16.2 0 1 0 32.4 0 a16.2 16.2 0 1 0 -32.4 0zM365.34 207.8 a16.2 16.2 0 1 0 32.4 0 a16.2 16.2 0 1 0 -32.4 0zM505.64 612.8 a16.2 16.2 0 1 0 32.4 0 a16.2 16.2 0 1 0 -32.4 0zM365.34 693.8 a16.2 16.2 0 1 0 32.4 0 a16.2 16.2 0 1 0 -32.4 0zM225.04 612.8 a16.2 16.2 0 1 0 32.4 0 a16.2 16.2 0 1 0 -32.4 0zM225.04 450.8 a16.2 16.2 0 1 0 32.4 0 a16.2 16.2 0 1 0 -32.4 0zM645.94 -116.2 a16.2 16.2 0 1 0 32.4 0 a16.2 16.2 0 1 0 -32.4 0zM786.24 -35.2 a16.2 16.2 0 1 0 32.4 0 a16.2 16.2 0 1 0 -32.4 0zM786.24 126.8 a16.2 16.2 0 1 0 32.4 0 a16.2 16.2 0 1 0 -32.4 0zM505.64 -35.2 a16.2 16.2 0 1 0 32.4 0 a16.2 16.2 0 1 0 -32.4 0zM926.54 207.8 a16.2 16.2 0 1 0 32.4 0 a16.2 16.2 0 1 0 -32.4 0zM926.54 369.8 a16.2 16.2 0 1 0 32.4 0 a16.2 16.2 0 1 0 -32.4 0zM786.24 450.8 a16.2 16.2 0 1 0 32.4 0 a16.2 16.2 0 1 0 -32.4 0zM786.24 612.8 a16.2 16.2 0 1 0 32.4 0 a16.2 16.2 0 1 0 -32.4 0zM645.94 693.8 a16.2 16.2 0 1 0 32.4 0 a16.2 16.2 0 1 0 -32.4 0zM1207.14 -116.2 a16.2 16.2 0 1 0 32.4 0 a16.2 16.2 0 1 0 -32.4 0zM1347.44 -35.2 a16.2 16.2 0 1 0 32.4 0 a16.2 16.2 0 1 0 -32.4 0zM1347.44 126.8 a16.2 16.2 0 1 0 32.4 0 a16.2 16.2 0 1 0 -32.4 0zM1207.14 207.8 a16.2 16.2 0 1 0 32.4 0 a16.2 16.2 0 1 0 -32.4 0zM1066.84 126.8 a16.2 16.2 0 1 0 32.4 0 a16.2 16.2 0 1 0 -32.4 0zM1066.84 -35.2 a16.2 16.2 0 1 0 32.4 0 a16.2 16.2 0 1 0 -32.4 0zM1207.14 369.8 a16.2 16.2 0 1 0 32.4 0 a16.2 16.2 0 1 0 -32.4 0zM1347.44 450.8 a16.2 16.2 0 1 0 32.4 0 a16.2 16.2 0 1 0 -32.4 0zM1347.44 612.8 a16.2 16.2 0 1 0 32.4 0 a16.2 16.2 0 1 0 -32.4 0zM1207.14 693.8 a16.2 16.2 0 1 0 32.4 0 a16.2 16.2 0 1 0 -32.4 0zM1066.84 612.8 a16.2 16.2 0 1 0 32.4 0 a16.2 16.2 0 1 0 -32.4 0zM1066.84 450.8 a16.2 16.2 0 1 0 32.4 0 a16.2 16.2 0 1 0 -32.4 0zM1487.74 -116.2 a16.2 16.2 0 1 0 32.4 0 a16.2 16.2 0 1 0 -32.4 0zM1628.04 -35.2 a16.2 16.2 0 1 0 32.4 0 a16.2 16.2 0 1 0 -32.4 0zM1628.04 126.8 a16.2 16.2 0 1 0 32.4 0 a16.2 16.2 0 1 0 -32.4 0zM1487.74 207.8 a16.2 16.2 0 1 0 32.4 0 a16.2 16.2 0 1 0 -32.4 0zM1768.34 207.8 a16.2 16.2 0 1 0 32.4 0 a16.2 16.2 0 1 0 -32.4 0zM1768.34 369.8 a16.2 16.2 0 1 0 32.4 0 a16.2 16.2 0 1 0 -32.4 0zM1628.04 450.8 a16.2 16.2 0 1 0 32.4 0 a16.2 16.2 0 1 0 -32.4 0zM1487.74 369.8 a16.2 16.2 0 1 0 32.4 0 a16.2 16.2 0 1 0 -32.4 0z" fill="rgba(25, 99, 172, 1)"></path></g><defs><mask id="SvgjsMask2484"><rect width="1440" height="560" fill="#ffffff"></rect></mask><linearGradient x1="15.28%" y1="-39.29%" x2="84.72%" y2="139.29%" gradientUnits="userSpaceOnUse" id="SvgjsLinearGradient2485"><stop stop-color="#0e2a47" offset="0"></stop><stop stop-color="rgba(0, 11, 24, 1)" offset="1"></stop></linearGradient><linearGradient x1="220.03199999999998" y1="-220.02399999999997" x2="1219.9679999999998" y2="780.024" gradientUnits="userSpaceOnUse" id="SvgjsLinearGradient2486"><stop stop-color="#0e2a47" offset="0"></stop><stop stop-color="rgba(0, 73, 166, 1)" offset="1"></stop></linearGradient></defs></svg>